<svg xmlns="http://www.w3.org/2000/svg" xmlns:xlink="http://www.w3.org/1999/xlink"><defs><clipPath id="clip0"><path fill="#fff" d="M0 0h25v25H0z"/></clipPath><clipPath id="clip0"><path fill="#fff" d="M0 0h23v23H0z"/></clipPath></defs><symbol id="icon-arrow-to-left"><path d="M.646 4.354a.5.5 0 010-.708L3.828.464a.5.5 0 11.708.708L1.707 4l2.829 2.828a.5.5 0 11-.708.708L.646 4.354zM14 4.5H1v-1h13v1z" fill="#fff"/></symbol><symbol id="icon-arrow-to-right"><path d="M13.354 4.354a.5.5 0 000-.708L10.172.464a.5.5 0 00-.708.708L12.293 4 9.464 6.828a.5.5 0 10.708.708l3.182-3.182zM0 4.5h13v-1H0v1z" fill="#fff"/></symbol><symbol id="icon-black-fb"><path d="M4.985 4.941V3.172c0-.488.396-.885.884-.885h.885V.077h-1.77A2.653 2.653 0 002.332 2.73v2.21H.562v2.211h1.769v7.076h2.654V7.152h1.769l.884-2.211H4.985z" fill="#2D383F"/></symbol><symbol id="icon-black-insta"><path d="M13.12.314H5.38A4.772 4.772 0 00.614 5.08v7.74a4.772 4.772 0 004.766 4.766h7.74a4.772 4.772 0 004.766-4.767V5.08A4.772 4.772 0 0013.119.314zm3.233 12.505a3.237 3.237 0 01-3.234 3.234H5.38a3.237 3.237 0 01-3.233-3.234V5.08A3.238 3.238 0 015.38 1.847h7.74a3.238 3.238 0 013.233 3.233v7.74z" fill="#2D383F"/><path d="M9.25 4.5A4.455 4.455 0 004.8 8.95a4.455 4.455 0 004.45 4.45 4.455 4.455 0 004.45-4.45A4.455 4.455 0 009.25 4.5zm0 7.368A2.921 2.921 0 016.332 8.95 2.921 2.921 0 019.25 6.032a2.921 2.921 0 012.918 2.918 2.921 2.921 0 01-2.918 2.918zM13.887 3.2a1.128 1.128 0 00-1.124 1.124c0 .295.12.586.33.795.209.208.499.329.794.329a1.126 1.126 0 001.124-1.124A1.129 1.129 0 0013.887 3.2z" fill="#2D383F"/></symbol><symbol id="icon-black-vk"><path d="M13.13 6.885a.849.849 0 00-.044-.08c-.221-.39-.644-.866-1.268-1.432l-.014-.013-.006-.006-.007-.007h-.007a7.545 7.545 0 01-.538-.531c-.137-.173-.168-.348-.093-.525.053-.134.253-.416.598-.848.182-.229.325-.412.432-.55.766-.994 1.098-1.628.996-1.905l-.04-.064c-.026-.039-.095-.075-.205-.107a1.072 1.072 0 00-.425-.016l-1.913.013a.254.254 0 00-.133.003l-.086.02-.034.016-.026.02a.291.291 0 00-.073.067.441.441 0 00-.067.113 10.46 10.46 0 01-.71 1.458c-.164.267-.315.5-.452.696a3.362 3.362 0 01-.345.434 2.389 2.389 0 01-.253.223c-.075.056-.133.08-.172.071a4.99 4.99 0 01-.113-.026.435.435 0 01-.15-.158.697.697 0 01-.076-.253 2.717 2.717 0 01-.02-.573c.005-.134.007-.225.007-.272 0-.164.003-.342.01-.534l.016-.457c.005-.112.007-.23.007-.356a1.46 1.46 0 00-.024-.295.99.99 0 00-.07-.207.352.352 0 00-.135-.155.779.779 0 00-.223-.088 4.528 4.528 0 00-.896-.084C5.754.468 5.225.52 4.99.632a.892.892 0 00-.252.195c-.08.095-.091.146-.034.155.266.039.454.132.565.278l.04.078c.03.056.062.156.093.298.03.143.05.3.06.473.022.315.022.585 0 .81a9.26 9.26 0 01-.063.524 1.03 1.03 0 01-.17.447.113.113 0 01-.033.032.509.509 0 01-.18.033.427.427 0 01-.225-.091 1.58 1.58 0 01-.276-.25 3.335 3.335 0 01-.322-.443 7.68 7.68 0 01-.372-.674l-.106-.187a14.915 14.915 0 01-.272-.528 10.046 10.046 0 01-.306-.67.428.428 0 00-.16-.208l-.033-.02a.719.719 0 00-.259-.097L.865.8C.68.8.554.842.488.924L.46.962a.205.205 0 00-.02.104c0 .048.014.106.04.175.266.609.555 1.196.867 1.762.312.565.583 1.02.814 1.366.23.345.465.671.704.978.239.306.397.503.474.59.078.086.139.15.183.194l.166.155c.107.104.263.228.468.372.206.145.434.287.685.428.25.14.54.255.873.343.332.089.655.124.97.107h.764a.536.536 0 00.352-.142l.026-.033a.423.423 0 00.05-.12.642.642 0 00.023-.178c-.004-.185.01-.353.043-.502.033-.148.071-.26.113-.336a.83.83 0 01.256-.285.442.442 0 01.053-.023c.106-.034.231-.001.375.1.144.102.28.227.406.376.126.15.277.316.454.502.178.186.333.324.465.415l.133.077c.089.052.204.1.346.143a.762.762 0 00.372.032l1.7-.026a.787.787 0 00.392-.08c.093-.055.148-.114.166-.179a.49.49 0 00.003-.22.803.803 0 00-.047-.172z" fill="#494949"/></symbol><symbol id="icon-blue-dot"><circle cx="7" cy="7" r="7" fill="#0266C1"/></symbol><symbol id="icon-boots"><path d="M23.658 15.616c.746-2.336.132-4.986-.52-6.822a.427.427 0 00-.063-.2 15.95 15.95 0 00-.601-1.441.852.852 0 00.537-.784v-3.55a.852.852 0 00-.853-.852h-10.47a.426.426 0 00-.425.452c.145 2.557-.043 4.29-.584 5.514a.377.377 0 00-.03.038.426.426 0 000 .064 4.41 4.41 0 01-.826 1.206l-.039.026v.03a6.15 6.15 0 01-1.704 1.15c-1.096.486-2.22.904-3.366 1.253l-.218.072C.512 13.093-.008 15.488.001 16.689a.409.409 0 000 .051v3.043c0 .148.078.285.204.362.977.594 2.03 1.05 3.132 1.355a.426.426 0 00.541-.426v-.098h.627v.426a.426.426 0 00.358.426c.37.06.741.107 1.103.137a.426.426 0 00.46-.427v-.537h.627v.606c0 .235.19.426.426.426.358 0 .716 0 1.1-.051a.426.426 0 00.391-.427v-.553h.627v.375a.426.426 0 00.494.426c.782-.12 1.553-.304 2.305-.55l.068-.03c2.983-1.704 4.875-.302 4.952-.243.074.058.166.09.26.09h.528a.426.426 0 00.426-.426v-.72h.61v.711c0 .235.19.426.426.426h1.372c.235 0 .426-.19.426-.426v-.712h.63v.712c0 .235.191.426.427.426h1.052c.235 0 .426-.19.426-.426v-4.593a.426.426 0 00-.34-.427zM13.547 2.828h8.59v3.528h-8.59V2.828zM8.19 11.325l.004.025c.35.284.672.599.963.942a.805.805 0 00-.115.426.814.814 0 10.886-.805 6.572 6.572 0 00-.916-1.01c.38-.217.739-.471 1.07-.759.413.388.797.805 1.15 1.249a.814.814 0 10.763-.546h-.103c-.373-.47-.78-.913-1.218-1.325a5.3 5.3 0 00.537-.8c.66.342 1.297.727 1.909 1.15a.822.822 0 10.456-.73 18.84 18.84 0 00-2.007-1.184c.464-1.235.664-2.876.57-5.113h.559v3.528c0 .47.381.852.852.852h7.985c.111.226.299.618.503 1.13h-.175a4.687 4.687 0 00-2.76 8.45c-3.448.907-8.634 1.985-12.997 1.704.805-3.217-.158-5.199-.784-6.068.975-.32 1.933-.693 2.868-1.116zm-3.725 1.359c.46.541 1.662 2.36.78 5.706a10.704 10.704 0 01-4.372-1.322 2.704 2.704 0 01-.03-.294v-.03c-.034-.907.307-2.871 3.622-4.06zm18.48 7.525v-.712a.426.426 0 00-.425-.426h-1.479a.426.426 0 00-.426.426v.712h-.524v-.712a.426.426 0 00-.426-.426h-1.47a.426.426 0 00-.427.426v.695c-.579-.362-2.697-1.415-5.7.264-.535.177-1.08.319-1.633.426v-.294a.426.426 0 00-.426-.426H8.54a.426.426 0 00-.426.426v.584h-.217v-.597a.426.426 0 00-.427-.426H5.992a.426.426 0 00-.426.426v.508l-.218-.03v-.478a.426.426 0 00-.426-.426H3.444a.426.426 0 00-.426.375 11.48 11.48 0 01-2.174-.976v-1.525c1.858.984 4.262 1.355 6.818 1.355 6.792 0 14.565-2.6 15.48-2.91l.005 3.741h-.2zm-.208-4.495c-.362.119-1.253.426-2.484.754a3.835 3.835 0 012.113-7.261l.005.013c.626 1.806 1.188 4.384.366 6.493z" fill="#2D383F"/><path d="M15.187 3.344a1.24 1.24 0 100 2.48 1.24 1.24 0 000-2.48zm0 1.627a.388.388 0 110-.775.388.388 0 010 .775z" fill="#2D383F"/></symbol><symbol id="icon-empty-star"><path d="m7.745 10.605-.245-.138-.245.138-3.624 2.04.945-3.794.078-.31-.248-.2-3.118-2.522 4.145-.332.294-.023.122-.268 1.651-3.637 1.652 3.637.121.268.294.023 4.145.332-3.118 2.522-.247.2.077.31.945 3.794z" stroke="#f3f3f3"/></symbol><symbol id="icon-fb">
  <path d="M3.666 3.988V2.656c0-.367.298-.665.665-.665h.666V.326H3.666a1.997 1.997 0 00-1.998 1.997v1.665H.337v1.664h1.331v5.326h1.998V5.652h1.331l.666-1.664H3.666z" fill="#fff"/>
</symbol><symbol id="icon-full-star"><path d="m7.5 11.041 4.635 2.609-1.226-4.92 4.091-3.31-5.393-.43-2.107-4.64-2.107 4.639-5.393.431 4.091 3.31-1.226 4.92z" fill="#fff"/></symbol><symbol id="icon-insta">
  <path d="M9.412 0H3.587A3.592 3.592 0 000 3.588v5.824A3.592 3.592 0 003.587 13h5.825A3.592 3.592 0 0013 9.412V3.588A3.592 3.592 0 009.412 0zm2.435 9.412a2.437 2.437 0 01-2.435 2.435H3.587a2.437 2.437 0 01-2.434-2.435V3.588a2.437 2.437 0 012.434-2.435h5.825a2.437 2.437 0 012.435 2.435v5.824z" fill="#fff"/>
  <path d="M6.5 3.15A3.354 3.354 0 003.15 6.5 3.353 3.353 0 006.5 9.85 3.353 3.353 0 009.85 6.5 3.354 3.354 0 006.5 3.15zm0 5.546A2.199 2.199 0 014.304 6.5c0-1.211.985-2.196 2.196-2.196 1.211 0 2.196.985 2.196 2.196A2.199 2.199 0 016.5 8.696zm3.49-6.524a.85.85 0 00-.846.846c0 .223.091.44.249.598a.852.852 0 00.597.248.85.85 0 00.598-.248.85.85 0 00-.598-1.444z" fill="#fff"/>
</symbol><symbol id="icon-map-position"><path d="M4.5 0C2.019 0 0 1.982 0 4.418c0 .635.132 1.242.394 1.803 1.125 2.417 3.282 4.97 3.916 5.694a.252.252 0 00.38 0c.634-.725 2.791-3.276 3.916-5.694A4.241 4.241 0 009 4.418C9 1.982 6.981 0 4.5 0zm0 6.713c-1.289 0-2.338-1.03-2.338-2.295 0-1.266 1.049-2.295 2.338-2.295 1.289 0 2.337 1.03 2.337 2.295S5.79 6.713 4.5 6.713z" fill="#fff"/></symbol><symbol id="icon-map"><path d="M24.17 22.28V6.701a.463.463 0 00-.602-.463v.023l-2.084.653a6.25 6.25 0 00.384-1.82 5.094 5.094 0 10-10.188 0c.033.594.153 1.179.357 1.737L8.59 5.599a.493.493 0 00-.12 0h-.037a.463.463 0 00-.162.032l-7.146 2.78a.463.463 0 00-.297.388v15.597a.463.463 0 00.63.431l6.984-2.704 7.965 2.853c.097.032.2.032.297 0l7.141-2.233a.463.463 0 00.324-.463zM16.774.926a4.168 4.168 0 014.168 4.168c0 1.811-2.718 6.813-4.168 9.262-1.45-2.468-4.168-7.474-4.168-9.262A4.168 4.168 0 0116.774.926zm6.484 21.035l-6.234 1.95v-3.534a.463.463 0 00-.926 0v3.501l-7.197-2.575V18.34a.463.463 0 00-.926 0v2.964l-6.22 2.422v-7.16l2.288-.926a.463.463 0 10-.342-.856l-1.945.782V9.12l6.22-2.409V8.1a.463.463 0 00.925 0V6.692l3.552 1.274a64.306 64.306 0 003.923 7.558.463.463 0 00.792 0 64.57 64.57 0 003.909-7.512l2.167-.68.014 7.59-2.348.57a.466.466 0 00.111.925.459.459 0 00.111 0l2.126-.518v6.062z" fill="#2D383F"/><path d="M16.756 2.404a2.69 2.69 0 100 5.381 2.69 2.69 0 000-5.381zm0 4.455a1.77 1.77 0 01-1.746-1.765h-.019a1.764 1.764 0 111.765 1.765zm-6.058 7.108v.014l-2.241-.968a.464.464 0 00-.357 0l-1.894.765a.464.464 0 10.347.861l1.714-.69 2.06.87a.465.465 0 00.186.038.463.463 0 00.185-.89zm7.572 2.649a.463.463 0 00-.523-.32l.004-.036-1.148.278-1.945-.843a.465.465 0 10-.37.852l2.083.926a.464.464 0 00.186.037h.11l1.297-.315a.463.463 0 00.306-.579z" fill="#2D383F"/></symbol><symbol id="icon-moon"><path d="M19.527 11.382a.7.7 0 00-.588.128 7.495 7.495 0 01-2.274 1.334 7.1 7.1 0 01-2.582.462A7.503 7.503 0 018.767 11.1a7.556 7.556 0 01-2.198-5.335c0-.872.153-1.718.409-2.488.28-.82.69-1.565 1.227-2.206a.656.656 0 00-.103-.923.701.701 0 00-.588-.128C5.342.61 3.45 1.918 2.096 3.662A10.18 10.18 0 000 9.843a10.14 10.14 0 002.965 7.182A10.066 10.066 0 0010.12 20c2.352 0 4.524-.82 6.263-2.18a10.118 10.118 0 003.578-5.617c.128-.385-.077-.744-.435-.821zm-3.91 5.36a8.715 8.715 0 01-5.444 1.899c-2.429 0-4.627-1-6.211-2.59A8.817 8.817 0 011.38 9.816c0-2.026.665-3.872 1.815-5.36a8.795 8.795 0 012.94-2.462 8.739 8.739 0 00-.359.872c-.332.923-.485 1.898-.485 2.924a8.88 8.88 0 002.581 6.258 8.816 8.816 0 006.237 2.59 8.53 8.53 0 003.041-.538c.333-.128.665-.257.972-.41a9.324 9.324 0 01-2.505 3.052z" fill="#fff"/></symbol><symbol id="icon-mountain"><g clip-path="url(#clip0)" fill="#2D383F"><path d="M23.415 24.188l-4.04-9.398-3.817-8.882a.477.477 0 00-.877 0l-3.407 7.904-1.335 3.106-2.93-6.76a.477.477 0 00-.877 0l-2.753 6.36-3.34 7.665a.477.477 0 00.44.668h22.498a.477.477 0 00.438-.663zm-8.3-16.892l3.096 7.199h-1.088l-1.965-2.171a.477.477 0 00-.754.062l-.735 1.135h-1.23l2.676-6.225zM6.57 11.532l2.447 5.658H7.682a.477.477 0 00-.4.22l-.478.758-1.23-1.737a.477.477 0 00-.391-.205h-.635l2.023-4.694zM1.228 23.897l2.905-6.717h.801l1.489 2.123a.477.477 0 00.391.205.477.477 0 00.391-.22l.735-1.134h1.488l2.486 5.724-10.686.02zm11.73 0l-2.5-5.772 1.57-3.65h1.908a.477.477 0 00.401-.219l.53-.816 1.688 1.866c.09.1.219.157.353.157h1.708l3.63 8.448-9.288-.014zM7.611 2.082a2.252 2.252 0 00-4.35.806 2.18 2.18 0 000 .248 2.252 2.252 0 00.906 4.293l.024.02H7.53a2.684 2.684 0 10.081-5.367zm-.053 4.427H4.22a1.3 1.3 0 11-.267-2.586.477.477 0 00.358-.62 1.298 1.298 0 112.505-.644c.043.25.276.423.529.391.071-.005.143-.005.214 0a1.73 1.73 0 010 3.459zM23.697 2.64a2.184 2.184 0 000-.248 2.252 2.252 0 00-4.343-.825 2.684 2.684 0 00.097 5.366h3.34a2.252 2.252 0 00.906-4.293zm.359 2.307a1.298 1.298 0 01-1.252 1.027h-3.339a1.73 1.73 0 010-3.458c.072-.005.143-.005.215 0a.477.477 0 00.515-.372 1.298 1.298 0 112.505.644.477.477 0 00.357.62c.701.15 1.148.838.999 1.54z"/></g></symbol><symbol id="icon-pine"><g clip-path="url(#clip0)"><path d="M22.625 16.637l-4.515-5.165h2.181a.461.461 0 00.365-.742L17.03 5.966h1.845a.461.461 0 00.345-.765L14.787.156a.461.461 0 00-.692 0l-4.44 5.04a.461.461 0 00.345.77h1.868L10.75 7.423 7.763 4.025a.461.461 0 00-.692 0L3.276 8.336a.461.461 0 00.346.766h1.462l-3.035 3.97a.461.461 0 00.365.733H4.12L.37 18.117a.461.461 0 00.346.76h5.1v3.229c0 .493.4.894.894.894h1.407a.894.894 0 00.899-.89v-3.232h3.827v3.227c0 .494.4.895.895.895h1.406c.494 0 .895-.4.895-.895v-4.703h6.239a.461.461 0 00.346-.765zm-14.53 5.44l-1.356.028-.028-3.227h1.384v3.2zm4.75-4.122H1.73l3.772-4.302a.461.461 0 00-.355-.77H3.35l3.034-3.97a.461.461 0 00-.364-.743H4.636l2.767-3.149 2.767 3.14-1.946 2.573a.461.461 0 00.364.743h2.186L6.259 16.64a.461.461 0 00.346.766h6.24v.548zm2.273 4.114l-1.351.037-.028-4.704h1.383l-.004 4.667zm.027-5.59H7.62l4.514-5.164a.461.461 0 00-.346-.765H9.524l3.643-4.768a.461.461 0 00-.364-.738h-1.766l3.421-3.883 3.403 3.883h-1.78a.461.461 0 00-.364.742l3.62 4.764H17.09a.461.461 0 00-.346.765l4.515 5.165h-6.115z" fill="#2D383F"/></g></symbol><symbol id="icon-sun"><path d="M15.655 7.1c-.977-.989-2.357-1.63-3.851-1.63A5.328 5.328 0 007.953 7.1a5.583 5.583 0 00-1.61 3.9c0 1.513.633 2.91 1.61 3.9.977.989 2.356 1.63 3.85 1.63a5.327 5.327 0 003.852-1.63 5.583 5.583 0 001.61-3.9c0-1.513-.604-2.91-1.61-3.9zm-1.035 6.752a3.95 3.95 0 01-2.816 1.164 3.95 3.95 0 01-2.817-1.164A4.052 4.052 0 017.837 11c0-1.106.432-2.124 1.15-2.852a3.95 3.95 0 012.817-1.164 3.95 3.95 0 012.816 1.164A4.051 4.051 0 0115.77 11a4.052 4.052 0 01-1.15 2.852zm7.3-3.609h-2.213a.766.766 0 00-.747.757c0 .407.345.757.747.757h2.213c.403 0 .747-.35.747-.757a.766.766 0 00-.747-.757zm-10.116 8.003a.766.766 0 00-.747.757v2.24c0 .408.345.757.747.757s.747-.35.747-.757v-2.24a.766.766 0 00-.747-.757zm7.673-.524l-1.58-1.6c-.259-.291-.747-.291-1.035 0a.744.744 0 000 1.047l1.58 1.6a.722.722 0 001.035 0 .744.744 0 000-1.047zM11.804 0a.766.766 0 00-.747.757v2.24c0 .408.345.757.747.757s.747-.35.747-.757V.757A.766.766 0 0011.804 0zm7.702 3.23a.722.722 0 00-1.035 0l-1.58 1.6a.744.744 0 000 1.048c.259.291.747.291 1.035 0l1.58-1.6a.744.744 0 000-1.048zM3.9 10.243H1.689A.766.766 0 00.94 11c0 .407.317.757.748.757H3.9c.402 0 .747-.35.747-.757a.766.766 0 00-.747-.757zm2.817 5.879c-.259-.291-.747-.291-1.035 0l-1.58 1.6a.744.744 0 000 1.048.722.722 0 001.034 0l1.581-1.6a.744.744 0 000-1.048zm0-11.292l-1.58-1.6a.722.722 0 00-1.035 0 .744.744 0 000 1.048l1.58 1.6a.722.722 0 001.035 0 .744.744 0 000-1.047z" fill="#fff"/></symbol><symbol id="icon-vk">
  <path d="M11.893 6.684c-.032-.054-.232-.488-1.192-1.38-1.005-.932-.87-.78.34-2.394.738-.983 1.033-1.583.94-1.84-.087-.244-.63-.18-.63-.18L9.549.902s-.133-.018-.233.042c-.097.058-.159.193-.159.193s-.286.76-.667 1.407C7.686 3.908 7.364 3.98 7.233 3.895c-.305-.197-.229-.794-.229-1.217 0-1.322.2-1.873-.39-2.016C6.416.615 6.272.583 5.77.578 5.128.571 4.582.58 4.274.731c-.206.1-.364.325-.267.338.12.015.39.072.533.267.185.252.178.817.178.817s.107 1.557-.248 1.75c-.244.133-.578-.138-1.294-1.376a11.544 11.544 0 01-.644-1.335s-.054-.13-.149-.2C2.268.906 2.106.88 2.106.88L.39.89s-.257.008-.352.12c-.084.1-.007.305-.007.305s1.343 3.14 2.863 4.724c1.394 1.45 2.977 1.356 2.977 1.356h.717s.216-.024.327-.144c.102-.11.098-.315.098-.315S7 5.974 7.447 5.832c.44-.14 1.006.93 1.605 1.342.453.311.797.243.797.243l1.603-.022s.839-.052.441-.711z" fill="#fff"/>
</symbol></svg>