<svg width="14" height="8" fill="none" xmlns="http://www.w3.org/2000/svg"><path d="M13.13 6.885a.849.849 0 00-.044-.08c-.221-.39-.644-.866-1.268-1.432l-.014-.013-.006-.006-.007-.007h-.007a7.545 7.545 0 01-.538-.531c-.137-.173-.168-.348-.093-.525.053-.134.253-.416.598-.848.182-.229.325-.412.432-.55.766-.994 1.098-1.628.996-1.905l-.04-.064c-.026-.039-.095-.075-.205-.107a1.072 1.072 0 00-.425-.016l-1.913.013a.254.254 0 00-.133.003l-.086.02-.034.016-.026.02a.291.291 0 00-.073.067.441.441 0 00-.067.113 10.46 10.46 0 01-.71 1.458c-.164.267-.315.5-.452.696a3.362 3.362 0 01-.345.434 2.389 2.389 0 01-.253.223c-.075.056-.133.08-.172.071a4.99 4.99 0 01-.113-.026.435.435 0 01-.15-.158.697.697 0 01-.076-.253 2.717 2.717 0 01-.02-.573c.005-.134.007-.225.007-.272 0-.164.003-.342.01-.534l.016-.457c.005-.112.007-.23.007-.356a1.46 1.46 0 00-.024-.295.99.99 0 00-.07-.207.352.352 0 00-.135-.155.779.779 0 00-.223-.088 4.528 4.528 0 00-.896-.084C5.754.468 5.225.52 4.99.632a.892.892 0 00-.252.195c-.08.095-.091.146-.034.155.266.039.454.132.565.278l.04.078c.03.056.062.156.093.298.03.143.05.3.06.473.022.315.022.585 0 .81a9.26 9.26 0 01-.063.524 1.03 1.03 0 01-.17.447.113.113 0 01-.033.032.509.509 0 01-.18.033.427.427 0 01-.225-.091 1.58 1.58 0 01-.276-.25 3.335 3.335 0 01-.322-.443 7.68 7.68 0 01-.372-.674l-.106-.187a14.915 14.915 0 01-.272-.528 10.046 10.046 0 01-.306-.67.428.428 0 00-.16-.208l-.033-.02a.719.719 0 00-.259-.097L.865.8C.68.8.554.842.488.924L.46.962a.205.205 0 00-.02.104c0 .048.014.106.04.175.266.609.555 1.196.867 1.762.312.565.583 1.02.814 1.366.23.345.465.671.704.978.239.306.397.503.474.59.078.086.139.15.183.194l.166.155c.107.104.263.228.468.372.206.145.434.287.685.428.25.14.54.255.873.343.332.089.655.124.97.107h.764a.536.536 0 00.352-.142l.026-.033a.423.423 0 00.05-.12.642.642 0 00.023-.178c-.004-.185.01-.353.043-.502.033-.148.071-.26.113-.336a.83.83 0 01.256-.285.442.442 0 01.053-.023c.106-.034.231-.001.375.1.144.102.28.227.406.376.126.15.277.316.454.502.178.186.333.324.465.415l.133.077c.089.052.204.1.346.143a.762.762 0 00.372.032l1.7-.026a.787.787 0 00.392-.08c.093-.055.148-.114.166-.179a.49.49 0 00.003-.22.803.803 0 00-.047-.172z" fill="#494949"/></svg>