<svg width="18" height="18" fill="none" xmlns="http://www.w3.org/2000/svg"><path d="M13.12.314H5.38A4.772 4.772 0 00.614 5.08v7.74a4.772 4.772 0 004.766 4.766h7.74a4.772 4.772 0 004.766-4.767V5.08A4.772 4.772 0 0013.119.314zm3.233 12.505a3.237 3.237 0 01-3.234 3.234H5.38a3.237 3.237 0 01-3.233-3.234V5.08A3.238 3.238 0 015.38 1.847h7.74a3.238 3.238 0 013.233 3.233v7.74z" fill="#2D383F"/><path d="M9.25 4.5A4.455 4.455 0 004.8 8.95a4.455 4.455 0 004.45 4.45 4.455 4.455 0 004.45-4.45A4.455 4.455 0 009.25 4.5zm0 7.368A2.921 2.921 0 016.332 8.95 2.921 2.921 0 019.25 6.032a2.921 2.921 0 012.918 2.918 2.921 2.921 0 01-2.918 2.918zM13.887 3.2a1.128 1.128 0 00-1.124 1.124c0 .295.12.586.33.795.209.208.499.329.794.329a1.126 1.126 0 001.124-1.124A1.129 1.129 0 0013.887 3.2z" fill="#2D383F"/></svg>