<svg fill="none" height="14" width="79" xmlns="http://www.w3.org/2000/svg"><path d="m7.5 11.041 4.635 2.609-1.226-4.92 4.091-3.31-5.393-.43-2.107-4.64-2.107 4.639-5.393.431 4.091 3.31-1.226 4.92zm16 0 4.635 2.609-1.226-4.92 4.091-3.31-5.393-.431-2.107-4.639-2.107 4.639-5.393.431 4.091 3.309-1.226 4.92 4.635-2.609z" fill="#fff"/><path d="m55.745 10.605-.245-.138-.245.138-3.624 2.04.945-3.794.078-.31-.248-.2-3.118-2.522 4.145-.332.294-.023.122-.268 1.651-3.637 1.651 3.637.122.268.294.023 4.145.332-3.118 2.522-.248.2.078.31.945 3.794zm-16 0-.245-.138-.245.138-3.624 2.04.945-3.794.078-.31-.248-.2-3.118-2.522 4.145-.332.294-.023.122-.268 1.651-3.637 1.651 3.637.122.268.294.023 4.145.332-3.118 2.522-.248.2.078.31.945 3.794z" stroke="#f3f3f3"/><path d="m71.745 10.605-.245-.138-.245.138-3.624 2.04.945-3.794.078-.31-.248-.2-3.118-2.522 4.145-.332.294-.023.121-.268 1.652-3.637 1.651 3.637.122.268.294.023 4.145.332-3.118 2.522-.247.2.077.31.945 3.794z" stroke="#fff"/></svg>